<svg width="20" height="20" viewBox="0 0 20 20" fill="none" xmlns="http://www.w3.org/2000/svg">
<g id="logo">
<path id="Vector" d="M19.1266 7.85224C19.211 7.85224 19.2794 7.92065 19.2794 8.00504V9.60932C19.2794 10.2098 19.2237 10.7969 19.1167 11.3664C18.2892 15.7902 14.3919 19.1334 9.72036 19.1012C4.47859 19.0651 0.283584 14.8298 0.29519 9.58793C0.306721 4.3555 4.55215 0.117188 9.78729 0.117188C12.3521 0.117188 14.6793 1.1347 16.3878 2.78752C16.4495 2.84718 16.4511 2.94551 16.3904 3.00617L14.1208 5.27579C14.0623 5.33423 13.9679 5.33575 13.9081 5.27876C12.8357 4.25802 11.3848 3.63135 9.78729 3.63135C6.48836 3.63135 3.83186 6.26898 3.80947 9.56783C3.78696 12.8883 6.47205 15.5872 9.78729 15.5872C12.4772 15.5872 14.7522 13.8103 15.5024 11.3664H9.94009C9.8557 11.3664 9.78729 11.298 9.78729 11.2136V8.005C9.78729 7.92061 9.8557 7.8522 9.94009 7.8522H19.1266V7.85224Z" fill="#2196F3"/>
<g id="Group">
<path id="Vector_2" d="M19.126 7.85254H17.9801C18.0645 7.85254 18.1329 7.92095 18.1329 8.00534V9.60962C18.1329 10.2101 18.0772 10.7972 17.9702 11.3667C17.1807 15.5871 13.5973 18.8239 9.21313 19.0846C9.38088 19.0945 9.54973 19.1003 9.71978 19.1015C14.3913 19.1337 18.2886 15.7905 19.1161 11.3667C19.2231 10.7972 19.2788 10.2101 19.2788 9.60962V8.0053C19.2788 7.92095 19.2104 7.85254 19.126 7.85254Z" fill="#1E88E5"/>
</g>
<path id="Vector_3" d="M4.35642 7.10584L1.47363 5.02291C3.09093 2.09774 6.20746 0.117188 9.78622 0.117188C12.3511 0.117188 14.6782 1.1347 16.3867 2.78752C16.4484 2.84718 16.45 2.94551 16.3893 3.00617L14.1197 5.27579C14.0614 5.33412 13.967 5.33593 13.9073 5.27905C12.8349 4.25813 11.3839 3.63139 9.78622 3.63139C7.37863 3.63139 5.30334 5.05462 4.35642 7.10584Z" fill="#F44336"/>
<path id="Vector_4" d="M3.52698 6.5045L4.35921 7.1058C5.22351 5.23355 7.02805 3.88515 9.16712 3.66398C9.18321 3.66223 9.19868 3.66012 9.21506 3.65856C9.02682 3.64069 8.83605 3.63135 8.64309 3.63135C6.46817 3.63135 4.57271 4.77793 3.52698 6.5045Z" fill="#E53935"/>
<path id="Vector_5" d="M15.2419 2.78752C15.3036 2.84718 15.3052 2.94551 15.2445 3.00621L13.4023 4.84839C13.5788 4.98261 13.7477 5.12618 13.9081 5.27879C13.9679 5.33578 14.0623 5.33426 14.1208 5.27583L16.3904 3.00621C16.4511 2.94551 16.4495 2.84721 16.3878 2.78752C14.6793 1.1347 12.3521 0.117188 9.78728 0.117188C9.59481 0.117188 9.40385 0.123602 9.21423 0.134911C11.5517 0.274141 13.6615 1.25869 15.2419 2.78752Z" fill="#E53935"/>
<path id="Vector_6" d="M16.7511 16.0603C15.0177 17.9308 12.5394 19.1016 9.78802 19.1016C6.07177 19.1016 2.85438 16.966 1.29626 13.8547L4.23938 11.8379C5.12256 14.0354 7.27423 15.5874 9.78802 15.5874C11.3656 15.5874 12.8003 14.9762 13.8683 13.9777L16.7511 16.0603Z" fill="#4CAF50"/>
<path id="Vector_7" d="M4.24115 11.8379L3.37329 12.4326C4.38127 14.3104 6.36346 15.5874 8.64383 15.5874C8.83668 15.5874 9.0273 15.5779 9.21548 15.5601C6.95186 15.3443 5.05622 13.8661 4.24115 11.8379Z" fill="#43A047"/>
<path id="Vector_8" d="M9.78576 19.1017C12.5371 19.1017 15.0154 17.9309 16.7488 16.0604L16.0427 15.5503C14.4151 17.5759 11.9735 18.9197 9.21423 19.0844C9.40333 19.0957 9.59384 19.1017 9.78576 19.1017Z" fill="#43A047"/>
<path id="Vector_9" d="M3.80937 9.60984C3.80937 10.3975 3.96176 11.1496 4.2387 11.8383L1.29555 13.8551C0.655385 12.5778 0.295166 11.1359 0.295166 9.60984C0.295166 7.94635 0.722979 6.38289 1.47471 5.02344L4.3575 7.10637C4.0057 7.86763 3.80937 8.71603 3.80937 9.60984Z" fill="#FFC107"/>
<path id="Vector_10" d="M3.37123 12.4328L4.2391 11.8381C3.96216 11.1494 3.80976 10.3973 3.80976 9.60966C3.80976 8.71585 4.0061 7.86745 4.3579 7.10619L3.52567 6.50488C2.98525 7.39718 2.6716 8.44424 2.66396 9.56821C2.65691 10.6047 2.91376 11.5807 3.37123 12.4328Z" fill="#FFB300"/>
</g>
</svg>
