<svg width="44" height="43" viewBox="0 0 44 43" fill="none" xmlns="http://www.w3.org/2000/svg">
<g id="solar:money-bag-bold">
<path id="Vector" fill-rule="evenodd" clip-rule="evenodd" d="M21.9354 2.30322H21.7496C20.1443 2.30322 18.8068 2.30322 17.7461 2.44608C16.6246 2.59608 15.6121 2.92822 14.7996 3.74072C13.9854 4.55501 13.6532 5.56751 13.5032 6.68715C13.4014 7.44965 13.3711 9.26929 13.3639 10.83C9.75321 10.9497 7.58357 11.3711 6.07821 12.8782C3.98535 14.9693 3.98535 18.3372 3.98535 25.0711C3.98535 31.805 3.98535 35.1729 6.07821 37.2639C8.16928 39.3568 11.5371 39.3568 18.2711 39.3568H25.4139C32.1479 39.3568 35.5157 39.3568 37.6068 37.2639C39.6996 35.1729 39.6996 31.805 39.6996 25.0711C39.6996 18.3372 39.6996 14.9693 37.6068 12.8782C36.1014 11.3711 33.9318 10.9497 30.3211 10.8318C30.3139 9.26929 30.2854 7.44965 30.1818 6.68894C30.0318 5.56751 29.6996 4.55501 28.8854 3.74251C28.0729 2.92822 27.0604 2.59608 25.9389 2.44608C24.8782 2.30322 23.5389 2.30322 21.9354 2.30322ZM27.6425 10.7889C27.6336 9.27644 27.6086 7.64965 27.5282 7.04429C27.4157 6.22108 27.2246 5.86751 26.9925 5.63537C26.7604 5.40322 26.4068 5.21215 25.5818 5.09965C24.7211 4.98537 23.5639 4.98179 21.8425 4.98179C20.1211 4.98179 18.9639 4.98537 18.1014 5.10144C17.2782 5.21215 16.9246 5.40322 16.6925 5.63715C16.4604 5.86929 16.2693 6.22108 16.1568 7.04429C16.0764 7.65144 16.0496 9.27644 16.0425 10.7889C16.7407 10.7854 17.4854 10.7854 18.2711 10.7854H25.4139C26.2014 10.7854 26.9443 10.7854 27.6425 10.7889ZM21.8425 16.5889C22.1977 16.5889 22.5383 16.73 22.7895 16.9812C23.0407 17.2324 23.1818 17.573 23.1818 17.9282V17.9461C25.1264 18.4354 26.7532 19.9693 26.7532 22.0943C26.7532 22.4495 26.6121 22.7901 26.3609 23.0413C26.1098 23.2925 25.7691 23.4336 25.4139 23.4336C25.0587 23.4336 24.7181 23.2925 24.4669 23.0413C24.2157 22.7901 24.0746 22.4495 24.0746 22.0943C24.0746 21.4086 23.3139 20.4586 21.8425 20.4586C20.3711 20.4586 19.6104 21.4086 19.6104 22.0943C19.6104 22.78 20.3711 23.7318 21.8425 23.7318C24.3157 23.7318 26.7532 25.4461 26.7532 28.0479C26.7532 30.1729 25.1264 31.705 23.1818 32.1961V32.2139C23.1818 32.5691 23.0407 32.9098 22.7895 33.161C22.5383 33.4121 22.1977 33.5532 21.8425 33.5532C21.4873 33.5532 21.1466 33.4121 20.8955 33.161C20.6443 32.9098 20.5032 32.5691 20.5032 32.2139V32.1961C18.5586 31.7068 16.9318 30.1729 16.9318 28.0479C16.9318 27.6927 17.0729 27.352 17.324 27.1008C17.5752 26.8497 17.9159 26.7086 18.2711 26.7086C18.6263 26.7086 18.9669 26.8497 19.2181 27.1008C19.4692 27.352 19.6104 27.6927 19.6104 28.0479C19.6104 28.7336 20.3711 29.6836 21.8425 29.6836C23.3139 29.6836 24.0746 28.7336 24.0746 28.0479C24.0746 27.3621 23.3139 26.4104 21.8425 26.4104C19.3693 26.4104 16.9318 24.6961 16.9318 22.0943C16.9318 19.9693 18.5586 18.4354 20.5032 17.9461V17.9282C20.5032 17.573 20.6443 17.2324 20.8955 16.9812C21.1466 16.73 21.4873 16.5889 21.8425 16.5889Z" fill="#9622CB"/>
</g>
</svg>
