<svg width="44" height="43" viewBox="0 0 44 43" fill="none" xmlns="http://www.w3.org/2000/svg">
<g id="solar:wallet-money-bold">
<g id="Group">
<path id="Vector" fill-rule="evenodd" clip-rule="evenodd" d="M37.192 17.6782C37.0879 17.6732 36.9837 17.6714 36.8795 17.6728H32.5313C28.9742 17.6728 25.9277 20.4961 25.9277 24.1782C25.9277 27.8603 28.9742 30.6836 32.5331 30.6836H36.8777C36.9867 30.6836 37.092 30.6836 37.1902 30.6764C37.9245 30.6295 38.6166 30.3173 39.1377 29.7979C39.6587 29.2785 39.9732 28.5873 40.0224 27.8532C40.0295 27.7478 40.0295 27.6353 40.0295 27.5318V20.8246C40.0295 20.7211 40.0295 20.6086 40.0224 20.5032C39.9732 19.7694 39.659 19.0785 39.1384 18.5591C38.6177 18.0397 37.9259 17.7273 37.192 17.68V17.6782ZM32.1509 25.9121C33.067 25.9121 33.8117 25.1371 33.8117 24.1782C33.8117 23.2193 33.067 22.4443 32.1509 22.4443C31.2349 22.4443 30.492 23.2193 30.492 24.1782C30.492 25.1371 31.2331 25.9121 32.1509 25.9121Z" fill="#9622CB"/>
<path id="Vector_2" fill-rule="evenodd" clip-rule="evenodd" d="M36.8781 33.2857C36.9379 33.2836 36.9974 33.2956 37.0517 33.3207C37.1061 33.3458 37.1538 33.3833 37.191 33.4303C37.2281 33.4772 37.2538 33.5322 37.2658 33.5908C37.2779 33.6494 37.2759 33.7101 37.2602 33.7679C36.9138 35.0036 36.3656 36.0571 35.4852 36.9429C34.1977 38.2411 32.5638 38.8179 30.546 39.0911C28.5852 39.3571 26.0817 39.3571 22.9174 39.3571H19.2799C16.1174 39.3571 13.612 39.3571 11.6513 39.0911C9.63345 38.8179 7.99953 38.2411 6.71203 36.9429C5.42453 35.6464 4.8531 34 4.58167 31.9661C4.31738 29.9893 4.31738 27.4643 4.31738 24.2768V24.0804C4.31738 20.8929 4.31738 18.3661 4.58167 16.3911C4.8531 14.3571 5.42453 12.7143 6.71024 11.4125C7.99774 10.1161 9.63167 9.5375 11.6495 9.26607C13.612 9 16.1174 9 19.2799 9H22.9174C26.0799 9 28.5852 9 30.546 9.26607C32.5638 9.53929 34.1977 10.1161 35.4852 11.4125C36.3656 12.3 36.9138 13.3536 37.2602 14.5911C37.2756 14.6487 37.2773 14.7092 37.2651 14.7676C37.2529 14.826 37.2272 14.8807 37.19 14.9274C37.1529 14.9741 37.1053 15.0114 37.0512 15.0365C36.997 15.0615 36.9377 15.0734 36.8781 15.0714H32.5335C27.6513 15.0714 23.3495 18.9589 23.3495 24.1786C23.3495 29.3982 27.6531 33.2857 32.5352 33.2857H36.8781ZM10.771 15.9393C10.6009 15.94 10.4327 15.9742 10.2759 16.0399C10.1191 16.1056 9.97679 16.2015 9.85707 16.3223C9.73735 16.443 9.64258 16.5861 9.57817 16.7434C9.51375 16.9008 9.48096 17.0693 9.48167 17.2393C9.48167 17.9589 10.0585 18.5411 10.771 18.5411H17.6567C18.371 18.5411 18.9477 17.9589 18.9477 17.2393C18.9487 16.8958 18.8133 16.5659 18.5712 16.3222C18.3291 16.0784 18.0002 15.9407 17.6567 15.9393H10.771Z" fill="#9622CB"/>
<path id="Vector_3" d="M14.6338 7.25694L18.1302 4.68015C19.0426 4.00562 20.1473 3.6416 21.282 3.6416C22.4167 3.6416 23.5214 4.00562 24.4338 4.68015L27.9499 7.27122C26.4784 7.21408 24.8356 7.21408 23.0374 7.21408H19.1624C17.5159 7.21408 16.0034 7.21408 14.6338 7.25694Z" fill="#9622CB"/>
</g>
</g>
</svg>
