<svg width="17" height="17" viewBox="0 0 17 17" fill="none" xmlns="http://www.w3.org/2000/svg">
<g id="akar-icons:google-fill">
<path id="Vector" d="M8 7.33333C9.66667 7.33333 11.0833 7.07222 12.25 6.55C13.4167 6.02778 14 5.4 14 4.66667C14 3.93333 13.4167 3.30556 12.25 2.78333C11.0833 2.26111 9.66667 2 8 2C6.33333 2 4.91667 2.26111 3.75 2.78333C2.58333 3.30556 2 3.93333 2 4.66667C2 5.4 2.58333 6.02778 3.75 6.55C4.91667 7.07222 6.33333 7.33333 8 7.33333ZM8 9C8.45556 9 9.02511 8.95267 9.70867 8.858C10.3922 8.76333 11.0504 8.61067 11.6833 8.4C12.3167 8.18889 12.8611 7.914 13.3167 7.57533C13.7722 7.23667 14 6.82267 14 6.33333V8C14 8.48889 13.7722 8.90289 13.3167 9.242C12.8611 9.58111 12.3167 9.856 11.6833 10.0667C11.05 10.2778 10.3918 10.4307 9.70867 10.5253C9.02556 10.62 8.456 10.6671 8 10.6667C7.54444 10.6667 6.97489 10.6193 6.29133 10.5247C5.60778 10.43 4.94978 10.2773 4.31733 10.0667C3.684 9.85556 3.13956 9.58067 2.684 9.242C2.22844 8.90333 2.00044 8.48933 2 8V6.33333C2 6.82222 2.22778 7.23622 2.68333 7.57533C3.13889 7.91444 3.68333 8.18933 4.31667 8.4C4.95 8.61111 5.60844 8.764 6.292 8.85867C6.97556 8.95333 7.54489 9.00044 8 9ZM8 12.3333C8.45556 12.3333 9.02511 12.286 9.70867 12.1913C10.3922 12.0967 11.0504 11.944 11.6833 11.7333C12.3167 11.5222 12.8611 11.2471 13.3167 10.908C13.7722 10.5689 14 10.1551 14 9.66667V11.3333C14 11.8222 13.7722 12.2362 13.3167 12.5753C12.8611 12.9144 12.3167 13.1893 11.6833 13.4C11.05 13.6111 10.3918 13.764 9.70867 13.8587C9.02556 13.9533 8.456 14.0004 8 14C7.54444 14 6.97489 13.9527 6.29133 13.858C5.60778 13.7633 4.94978 13.6107 4.31733 13.4C3.684 13.1889 3.13956 12.9138 2.684 12.5747C2.22844 12.2356 2.00044 11.8218 2 11.3333V9.66667C2 10.1556 2.22778 10.5696 2.68333 10.9087C3.13889 11.2478 3.68333 11.5227 4.31667 11.7333C4.95 11.9444 5.60844 12.0973 6.292 12.192C6.97556 12.2867 7.54489 12.3338 8 12.3333Z" fill="white"/>
</g>
</svg>
