<svg width="17" height="17" viewBox="0 0 17 17" fill="none" xmlns="http://www.w3.org/2000/svg">
<g id="akar-icons:google-fill" clip-path="url(#clip0_43_1653)">
<path id="Vector" d="M7.33464 8.00033C7.33464 8.88438 6.98345 9.73223 6.35833 10.3573C5.7332 10.9825 4.88536 11.3337 4.0013 11.3337C3.11725 11.3337 2.2694 10.9825 1.64428 10.3573C1.01916 9.73223 0.667969 8.88438 0.667969 8.00033C0.667969 7.11627 1.01916 6.26842 1.64428 5.6433C2.2694 5.01818 3.11725 4.66699 4.0013 4.66699C4.88536 4.66699 5.7332 5.01818 6.35833 5.6433C6.98345 6.26842 7.33464 7.11627 7.33464 8.00033ZM15.3346 8.00033C15.3346 8.88438 14.9834 9.73223 14.3583 10.3573C13.7332 10.9825 12.8854 11.3337 12.0013 11.3337C11.1172 11.3337 10.2694 10.9825 9.64428 10.3573C9.01916 9.73223 8.66797 8.88438 8.66797 8.00033C8.66797 7.11627 9.01916 6.26842 9.64428 5.6433C10.2694 5.01818 11.1172 4.66699 12.0013 4.66699C12.8854 4.66699 13.7332 5.01818 14.3583 5.6433C14.9834 6.26842 15.3346 7.11627 15.3346 8.00033Z" fill="white"/>
</g>
<defs>
<clipPath id="clip0_43_1653">
<rect width="16" height="16" fill="white" transform="translate(0.400391 0.399902)"/>
</clipPath>
</defs>
</svg>
