<svg width="17" height="17" viewBox="0 0 17 17" fill="none" xmlns="http://www.w3.org/2000/svg">
<g id="akar-icons:google-fill">
<path id="Vector" d="M14.7041 7.1694C14.7861 7.60874 14.8308 8.06807 14.8308 8.5474C14.8308 12.2967 12.3214 14.9627 8.53142 14.9627C7.66952 14.963 6.81602 14.7934 6.01968 14.4637C5.22334 14.134 4.49978 13.6506 3.89032 13.0412C3.28087 12.4317 2.79748 11.7081 2.46777 10.9118C2.13806 10.1155 1.96849 9.26196 1.96875 8.40007C1.96849 7.53817 2.13806 6.68467 2.46777 5.88833C2.79748 5.092 3.28087 4.36843 3.89032 3.75898C4.49978 3.14952 5.22334 2.66613 6.01968 2.33642C6.81602 2.00671 7.66952 1.83714 8.53142 1.8374C10.3034 1.8374 11.7841 2.4894 12.9201 3.54807L11.0701 5.39807V5.3934C10.3814 4.7374 9.50742 4.40074 8.53142 4.40074C6.36608 4.40074 4.60608 6.23007 4.60608 8.39607C4.60608 10.5614 6.36608 12.3947 8.53142 12.3947C10.4961 12.3947 11.8334 11.2714 12.1081 9.72874H8.53142V7.1694H14.7048H14.7041Z" fill="white"/>
</g>
</svg>
