<svg width="16" height="16" viewBox="0 0 16 16" fill="none" xmlns="http://www.w3.org/2000/svg">
<g id="akar-icons:instagram-fill" clip-path="url(#clip0_43_1606)">
<path id="Vector" fill-rule="evenodd" clip-rule="evenodd" d="M4.97602 0.710504C5.75802 0.674504 6.00735 0.666504 7.99935 0.666504C9.99135 0.666504 10.2407 0.675171 11.022 0.710504C11.8033 0.745837 12.3367 0.870504 12.8033 1.05117C13.292 1.23584 13.7353 1.5245 14.102 1.89784C14.4753 2.26384 14.7633 2.7065 14.9473 3.19584C15.1287 3.6625 15.2527 4.19584 15.2887 4.97584C15.3247 5.75917 15.3327 6.0085 15.3327 7.99984C15.3327 9.99184 15.324 10.2412 15.2887 11.0232C15.2533 11.8032 15.1287 12.3365 14.9473 12.8032C14.7633 13.2926 14.4749 13.736 14.102 14.1025C13.7353 14.4758 13.292 14.7638 12.8033 14.9478C12.3367 15.1292 11.8033 15.2532 11.0233 15.2892C10.2407 15.3252 9.99135 15.3332 7.99935 15.3332C6.00735 15.3332 5.75802 15.3245 4.97602 15.2892C4.19602 15.2538 3.66268 15.1292 3.19602 14.9478C2.70663 14.7638 2.26323 14.4753 1.89668 14.1025C1.5236 13.7363 1.23489 13.2931 1.05068 12.8038C0.870016 12.3372 0.746016 11.8038 0.710016 11.0238C0.674016 10.2405 0.666016 9.99117 0.666016 7.99984C0.666016 6.00784 0.674682 5.7585 0.710016 4.97717C0.745349 4.19584 0.870016 3.6625 1.05068 3.19584C1.23516 2.70656 1.52409 2.26338 1.89735 1.89717C2.26338 1.52417 2.70633 1.23547 3.19535 1.05117C3.66202 0.870504 4.19535 0.746504 4.97535 0.710504H4.97602ZM10.9627 2.0305C10.1893 1.99517 9.95735 1.98784 7.99935 1.98784C6.04135 1.98784 5.80935 1.99517 5.03602 2.0305C4.32068 2.06317 3.93268 2.1825 3.67402 2.28317C3.33202 2.4165 3.08735 2.5745 2.83068 2.83117C2.58738 3.06787 2.40014 3.35603 2.28268 3.6745C2.18202 3.93317 2.06268 4.32117 2.03002 5.0365C1.99468 5.80984 1.98735 6.04184 1.98735 7.99984C1.98735 9.95784 1.99468 10.1898 2.03002 10.9632C2.06268 11.6785 2.18202 12.0665 2.28268 12.3252C2.40002 12.6432 2.58735 12.9318 2.83068 13.1685C3.06735 13.4118 3.35602 13.5992 3.67402 13.7165C3.93268 13.8172 4.32068 13.9365 5.03602 13.9692C5.80935 14.0045 6.04068 14.0118 7.99935 14.0118C9.95802 14.0118 10.1893 14.0045 10.9627 13.9692C11.678 13.9365 12.066 13.8172 12.3247 13.7165C12.6667 13.5832 12.9113 13.4252 13.168 13.1685C13.4113 12.9318 13.5987 12.6432 13.716 12.3252C13.8167 12.0665 13.936 11.6785 13.9687 10.9632C14.004 10.1898 14.0113 9.95784 14.0113 7.99984C14.0113 6.04184 14.004 5.80984 13.9687 5.0365C13.936 4.32117 13.8167 3.93317 13.716 3.6745C13.5827 3.3325 13.4247 3.08784 13.168 2.83117C12.9313 2.58788 12.6432 2.40064 12.3247 2.28317C12.066 2.1825 11.678 2.06317 10.9627 2.0305ZM7.06268 10.2605C7.58579 10.4783 8.16827 10.5076 8.71064 10.3437C9.253 10.1797 9.72161 9.83245 10.0364 9.36133C10.3512 8.89022 10.4927 8.32442 10.4367 7.76057C10.3807 7.19673 10.1307 6.66982 9.72935 6.26984C9.47351 6.01415 9.16416 5.81838 8.82357 5.6966C8.48299 5.57483 8.11964 5.53008 7.75968 5.56558C7.39972 5.60108 7.05212 5.71596 6.74189 5.90192C6.43165 6.08789 6.16651 6.34033 5.96555 6.64107C5.76459 6.94181 5.63281 7.28336 5.57969 7.64114C5.52658 7.99893 5.55345 8.36403 5.65838 8.71018C5.7633 9.05633 5.94367 9.37491 6.1865 9.64299C6.42932 9.91106 6.72857 10.122 7.06268 10.2605ZM5.33402 5.3345C5.68403 4.98449 6.09956 4.70684 6.55688 4.51741C7.0142 4.32798 7.50435 4.23049 7.99935 4.23049C8.49435 4.23049 8.9845 4.32798 9.44182 4.51741C9.89914 4.70684 10.3147 4.98449 10.6647 5.3345C11.0147 5.68452 11.2923 6.10005 11.4818 6.55737C11.6712 7.01469 11.7687 7.50484 11.7687 7.99984C11.7687 8.49484 11.6712 8.98499 11.4818 9.44231C11.2923 9.89962 11.0147 10.3152 10.6647 10.6652C9.95779 11.3721 8.99904 11.7692 7.99935 11.7692C6.99966 11.7692 6.04091 11.3721 5.33402 10.6652C4.62713 9.95828 4.23 8.99953 4.23 7.99984C4.23 7.00014 4.62713 6.04139 5.33402 5.3345ZM12.6047 4.79184C12.6914 4.71002 12.7609 4.61162 12.8089 4.50249C12.8569 4.39335 12.8826 4.27568 12.8843 4.15646C12.886 4.03723 12.8638 3.91887 12.819 3.80838C12.7742 3.69789 12.7076 3.59751 12.6233 3.5132C12.539 3.42888 12.4386 3.36234 12.3281 3.31752C12.2177 3.27269 12.0993 3.25049 11.9801 3.25223C11.8608 3.25396 11.7432 3.27961 11.634 3.32763C11.5249 3.37566 11.4265 3.4451 11.3447 3.53184C11.1856 3.70052 11.0984 3.92458 11.1018 4.15646C11.1052 4.38833 11.1988 4.60976 11.3628 4.77373C11.5268 4.93771 11.7482 5.03132 11.9801 5.0347C12.2119 5.03808 12.436 4.95096 12.6047 4.79184Z" fill="white"/>
</g>
<defs>
<clipPath id="clip0_43_1606">
<rect width="16" height="16" fill="white"/>
</clipPath>
</defs>
</svg>
