<svg width="16" height="16" viewBox="0 0 16 16" fill="none" xmlns="http://www.w3.org/2000/svg">
<g id="akar-icons:google-fill">
<path id="Vector" d="M3.2 1.6008C3.19979 2.02515 3.03101 2.43203 2.73081 2.73194C2.4306 3.03185 2.02355 3.20021 1.5992 3.2C1.17485 3.19979 0.767972 3.03101 0.468064 2.73081C0.168155 2.4306 -0.000211973 2.02355 2.00289e-07 1.5992C0.000212373 1.17485 0.168987 0.767972 0.469195 0.468064C0.769403 0.168155 1.17645 -0.000211973 1.6008 2.00289e-07C2.02515 0.000212373 2.43203 0.168987 2.73194 0.469195C3.03184 0.769403 3.20021 1.17645 3.2 1.6008ZM3.248 4.3848H0.0480001V14.4008H3.248V4.3848ZM8.304 4.3848H5.12V14.4008H8.272V9.1448C8.272 6.2168 12.088 5.9448 12.088 9.1448V14.4008H15.248V8.0568C15.248 3.1208 9.6 3.3048 8.272 5.7288L8.304 4.3848Z" fill="white"/>
</g>
</svg>
