<svg width="16" height="16" viewBox="0 0 16 16" fill="none" xmlns="http://www.w3.org/2000/svg">
<g id="ri:snapchat-fill">
<path id="Vector" d="M7.91449 14.51C7.12116 14.51 6.59182 14.1353 6.11916 13.8053C5.78316 13.5673 5.46849 13.3413 5.09716 13.2787C4.92036 13.2482 4.74122 13.2335 4.56182 13.2347C4.24716 13.2347 3.99716 13.282 3.81916 13.318C3.70582 13.338 3.61116 13.3567 3.53649 13.3567C3.45916 13.3567 3.36116 13.3353 3.32316 13.2047C3.28982 13.098 3.26916 12.9967 3.24849 12.8987C3.19516 12.652 3.15049 12.5007 3.05782 12.4853C2.06516 12.334 1.47116 12.1053 1.35516 11.8347C1.34582 11.8053 1.33449 11.7747 1.33449 11.7513C1.32782 11.6687 1.38782 11.6 1.47116 11.5847C2.25849 11.4547 2.96582 11.0353 3.56316 10.346C4.02716 9.81067 4.25316 9.29333 4.27382 9.23733C4.27382 9.23067 4.27982 9.23067 4.27982 9.23067C4.39316 8.99667 4.41649 8.79733 4.34782 8.634C4.21982 8.32733 3.79782 8.19667 3.50982 8.10733C3.43582 8.08733 3.37316 8.06333 3.31982 8.04533C3.07316 7.94733 2.66249 7.73867 2.71649 7.45067C2.75516 7.24267 3.03116 7.094 3.25716 7.094C3.31982 7.094 3.37316 7.10333 3.41716 7.12733C3.67049 7.24267 3.89916 7.302 4.09516 7.302C4.33916 7.302 4.45516 7.21 4.48449 7.18067C4.47828 7.0488 4.47051 6.91701 4.46116 6.78533C4.40116 5.87533 4.33316 4.746 4.62116 4.09867C5.48649 2.16067 7.32316 2.00533 7.86716 2.00533L8.10449 2H8.13782C8.68116 2 10.5178 2.15133 11.3832 4.09267C11.6745 4.74 11.6032 5.87267 11.5432 6.77933L11.5372 6.824C11.5318 6.94533 11.5225 7.06133 11.5172 7.18067C11.5465 7.204 11.6532 7.29333 11.8732 7.296C12.0638 7.29067 12.2718 7.228 12.5092 7.12067C12.5749 7.09228 12.6456 7.07732 12.7172 7.07667C12.8005 7.07667 12.8838 7.09667 12.9552 7.12067H12.9612C13.1605 7.19533 13.2912 7.33467 13.2912 7.48067C13.2972 7.61733 13.1898 7.82533 12.6818 8.03067C12.6285 8.05067 12.5658 8.07533 12.4918 8.09267C12.2092 8.17933 11.7872 8.316 11.6532 8.61933C11.5792 8.77933 11.6085 8.98467 11.7218 9.21667C11.7218 9.222 11.7278 9.222 11.7278 9.222C11.7605 9.30533 12.6192 11.2553 14.5305 11.5733C14.5696 11.5799 14.6049 11.6004 14.63 11.6311C14.6552 11.6617 14.6684 11.7004 14.6672 11.74C14.6676 11.7699 14.6605 11.7995 14.6465 11.826C14.5305 12.0993 13.9418 12.322 12.9432 12.4767C12.8512 12.4913 12.8065 12.6433 12.7532 12.89C12.732 12.9928 12.7073 13.0949 12.6792 13.196C12.6492 13.294 12.5865 13.3473 12.4792 13.3473H12.4652C12.3701 13.3455 12.2755 13.3345 12.1825 13.3147C11.9382 13.2626 11.689 13.2367 11.4392 13.2373C11.26 13.2377 11.0812 13.2527 10.9045 13.282C10.5358 13.342 10.2178 13.5707 9.88182 13.8087C9.40316 14.1353 8.87116 14.51 8.08382 14.51H7.91449Z" fill="white"/>
</g>
</svg>
