<svg width="17" height="17" viewBox="0 0 17 17" fill="none" xmlns="http://www.w3.org/2000/svg">
<g id="akar-icons:google-fill">
<path id="Vector" d="M14.9467 4.33333C14.4333 4.56667 13.88 4.72 13.3067 4.79333C13.8933 4.44 14.3467 3.88 14.56 3.20667C14.0067 3.54 13.3933 3.77333 12.7467 3.90667C12.22 3.33333 11.48 3 10.64 3C9.07333 3 7.79333 4.28 7.79333 5.86C7.79333 6.08667 7.82 6.30667 7.86667 6.51333C5.49333 6.39333 3.38 5.25333 1.97333 3.52667C1.72667 3.94667 1.58667 4.44 1.58667 4.96C1.58667 5.95333 2.08667 6.83333 2.86 7.33333C2.38667 7.33333 1.94667 7.2 1.56 7V7.02C1.56 8.40667 2.54667 9.56667 3.85333 9.82667C3.43382 9.94147 2.9934 9.95745 2.56667 9.87333C2.74774 10.4417 3.10236 10.9389 3.58068 11.2953C4.059 11.6516 4.63696 11.8491 5.23333 11.86C4.22242 12.6603 2.96933 13.0929 1.68 13.0867C1.45333 13.0867 1.22667 13.0733 1 13.0467C2.26667 13.86 3.77333 14.3333 5.38667 14.3333C10.64 14.3333 13.5267 9.97333 13.5267 6.19333C13.5267 6.06667 13.5267 5.94667 13.52 5.82C14.08 5.42 14.56 4.91333 14.9467 4.33333Z" fill="white"/>
</g>
</svg>
