<svg width="17" height="17" viewBox="0 0 17 17" fill="none" xmlns="http://www.w3.org/2000/svg">
<g id="akar-icons:google-fill">
<path id="Vector" d="M8.16137 2.66699C8.51736 2.66899 9.40803 2.67766 10.3547 2.71566L10.6907 2.73033C11.6434 2.77499 12.5954 2.85233 13.068 2.98366C13.698 3.16099 14.1927 3.67699 14.36 4.33166C14.6267 5.37166 14.66 7.39966 14.664 7.89099L14.6647 7.99233V8.10833C14.66 8.59966 14.6267 10.6283 14.36 11.6677C14.1907 12.3243 13.6954 12.841 13.068 13.0157C12.5954 13.147 11.6434 13.2243 10.6907 13.269L10.3547 13.2843C9.40803 13.3217 8.51736 13.331 8.16137 13.3323L8.0047 13.333H7.8347C7.08136 13.3283 3.9307 13.2943 2.92803 13.0157C2.2987 12.8383 1.80336 12.3223 1.63603 11.6677C1.36936 10.6277 1.33603 8.59966 1.33203 8.10833V7.89099C1.33603 7.39966 1.36936 5.37099 1.63603 4.33166C1.80536 3.67499 2.3007 3.15833 2.9287 2.98433C3.9307 2.70499 7.08203 2.67099 7.83536 2.66699H8.16137ZM6.6647 5.66699V10.3337L10.6647 8.00033L6.6647 5.66699Z" fill="white"/>
</g>
</svg>
